<?xml version="1.0" encoding="UTF-8"?>
<svg id="Layer_1" data-name="Layer 1" xmlns="http://www.w3.org/2000/svg" viewBox="0 0 2347.26 967.56">
  <defs>
    <style>
      .cls-1 {
        fill: #e5e5e5;
      }

      .cls-2 {
        fill: #fff;
      }
    </style>
  </defs>
  <path class="cls-1" d="M572.53,14.25v61.54h-158.29c-.82,0-1.63,0-2.44.01h-46.89c-15.67,0-30.1,5.34-41.56,14.29-7.72,6.04-14.1,13.71-18.6,22.5-3.25,6.34-5.52,13.26-6.63,20.57-.16,1.05-.3,2.1-.4,3.16-.04.34-.07.68-.1,1.02-.18,1.99-.27,4-.27,6.03,0-2.03-.09-4.04-.27-6.03-.03-.35-.06-.71-.1-1.06-.11-1.05-.24-2.09-.4-3.12-1.11-7.31-3.38-14.23-6.63-20.57-4.5-8.79-10.88-16.46-18.6-22.5-11.46-8.95-25.89-14.29-41.56-14.29h-47.8c-.81-.01-1.63-.01-2.45-.01H22.19V14.25h207.6c15.67,0,30.1,5.34,41.56,14.29,13.29,10.39,22.59,25.63,25.23,43.06.15.95.27,1.91.37,2.87v.02c.05.43.1.86.13,1.29.18,1.99.27,4,.27,6.03,0-2.03.09-4.04.27-6.03.03-.42.07-.83.12-1.25h0c.1-.99.23-1.96.38-2.93,2.64-17.43,11.94-32.67,25.23-43.06,11.46-8.95,25.89-14.29,41.56-14.29h207.62Z"/>
  <path class="cls-2" d="M572.53,126.08h-207.62c-15.67,0-30.1,5.34-41.56,14.29-13.29,10.39-22.59,25.63-25.23,43.06-.15.97-.28,1.94-.38,2.92h0c-.05.43-.09.84-.12,1.26-.18,1.99-.27,4-.27,6.03,0-2.03-.09-4.04-.27-6.03-.03-.43-.08-.86-.13-1.29v-.02c-.1-.96-.22-1.92-.37-2.87-2.64-17.43-11.94-32.67-25.23-43.06-11.46-8.95-25.89-14.29-41.56-14.29H22.19v518.08h275.17v307.43h0c151.97,0,275.16-123.19,275.17-275.16h0V126.08Z"/>
  <polygon class="cls-2" points="489.07 209.54 489.07 209.65 488.96 209.54 489.07 209.54"/>
  <polygon class="cls-2" points="489.07 209.54 489.07 209.65 488.96 209.54 489.07 209.54"/>
  <circle class="cls-1" cx="2296.07" cy="922.39" r="29"/>
  <path class="cls-2" d="M572.53,25.12v61.54h-158.29c-.82,0-1.63,0-2.44.01h-46.89c-15.67,0-30.1,5.34-41.56,14.29-7.72,6.04-14.1,13.71-18.6,22.5-3.25,6.34-5.52,13.26-6.63,20.57-.16,1.05-.3,2.1-.4,3.16-.04.34-.07.68-.1,1.02-.18,1.99-.27,4-.27,6.03,0-2.03-.09-4.04-.27-6.03-.03-.35-.06-.71-.1-1.06-.11-1.05-.24-2.09-.4-3.12-1.11-7.31-3.38-14.23-6.63-20.57-4.5-8.79-10.88-16.46-18.6-22.5-11.46-8.95-25.89-14.29-41.56-14.29h-47.8c-.81-.01-1.63-.01-2.45-.01H22.19V25.12h207.6c15.67,0,30.1,5.34,41.56,14.29,13.29,10.39,22.59,25.63,25.23,43.06.15.95.27,1.91.37,2.87v.02c.05.43.1.86.13,1.29.18,1.99.27,4,.27,6.03,0-2.03.09-4.04.27-6.03.03-.42.07-.83.12-1.25h0c.1-.99.23-1.96.38-2.93,2.64-17.43,11.94-32.67,25.23-43.06,11.46-8.95,25.89-14.29,41.56-14.29h207.62Z"/>
  <path class="cls-1" d="M297.36,644.15h0s-275.17,0-275.17,0v-275.17h0c151.97,0,275.17,123.2,275.17,275.17Z"/>
  <g>
    <polygon class="cls-2" points="730.2 243.41 726.84 192.69 745.17 222.94 819.72 330.79 861.27 330.79 861.27 126.08 817.58 126.08 817.58 216.82 820.33 265.1 801.69 233.02 728.98 126.08 686.5 126.08 686.5 330.79 730.2 330.79 730.2 243.41"/>
    <polygon class="cls-2" points="971.27 330.79 1077.9 330.79 1077.9 291.99 971.27 291.99 971.27 246.77 1060.48 246.77 1060.48 207.96 971.27 207.96 971.27 164.88 1077.9 164.88 1077.9 126.08 971.27 126.08 942.85 126.08 927.57 126.08 927.57 330.79 942.85 330.79 971.27 330.79"/>
    <polygon class="cls-2" points="1164.06 330.79 1208.81 254.55 1255.72 330.79 1311.03 330.79 1241.63 229.14 1308.28 126.08 1254.81 126.08 1211.77 200.16 1167.42 126.08 1111.81 126.08 1179.08 224.88 1109.37 330.79 1164.06 330.79"/>
    <polygon class="cls-2" points="1399.63 330.79 1443.33 330.79 1443.33 164.88 1504.44 164.88 1504.44 126.08 1443.33 126.08 1399.63 126.08 1338.53 126.08 1338.53 164.88 1399.63 164.88 1399.63 330.79"/>
    <path class="cls-2" d="M730.2,581.55h41.25c15.89,0,30.1-2.49,42.62-7.49,12.53-4.99,22.4-12.78,29.64-23.37,7.23-10.59,10.85-24.34,10.85-41.25s-3.67-31.32-11-42.01-17.26-18.59-29.79-23.68c-12.53-5.09-26.63-7.64-42.32-7.64h-84.94v204.71h43.69v-59.27ZM769.92,474.92c7.53,0,14.21,1.12,20.01,3.36,5.81,2.24,10.39,5.86,13.75,10.85,3.36,4.99,5.04,11.76,5.04,20.32,0,7.94-1.68,14.36-5.04,19.25-3.36,4.89-7.94,8.45-13.75,10.69-5.8,2.24-12.48,3.36-20.01,3.36h-39.72v-67.83h39.72Z"/>
    <path class="cls-2" d="M1075.31,463.61c-9.07-9.57-19.91-17.06-32.54-22.46-12.63-5.39-26.58-8.1-41.86-8.1s-29.18,2.7-41.71,8.1c-12.53,5.4-23.37,12.89-32.54,22.46-9.17,9.58-16.25,20.73-21.23,33.46-4.99,12.73-7.49,26.43-7.49,41.1s2.49,28.42,7.49,41.25c4.99,12.83,12.07,24.04,21.23,33.61,9.17,9.58,20.01,17.06,32.54,22.46s26.43,8.1,41.71,8.1,29.23-2.7,41.86-8.1c12.63-5.39,23.47-12.88,32.54-22.46,9.06-9.57,16.09-20.78,21.08-33.61,4.99-12.83,7.49-26.58,7.49-41.25s-2.5-28.36-7.49-41.1c-4.99-12.73-12.02-23.88-21.08-33.46ZM1051.47,570.55c-4.18,9.58-10.49,17.06-18.94,22.46-8.46,5.4-19,8.1-31.62,8.1s-22.87-2.7-31.32-8.1c-8.46-5.4-14.82-12.88-19.1-22.46-4.28-9.57-6.42-20.37-6.42-32.39s2.14-23.07,6.42-32.54c4.28-9.47,10.64-16.91,19.1-22.3,8.45-5.4,18.89-8.1,31.32-8.1s23.17,2.7,31.62,8.1c8.45,5.4,14.77,12.83,18.94,22.3,4.17,9.47,6.26,20.32,6.26,32.54s-2.09,22.81-6.26,32.39Z"/>
    <rect class="cls-2" x="1157.65" y="436.11" width="43.69" height="204.71"/>
    <polygon class="cls-2" points="1401.16 640.83 1442.72 640.83 1442.72 436.11 1399.02 436.11 1399.02 526.86 1401.77 575.13 1383.14 543.05 1310.42 436.11 1267.95 436.11 1267.95 640.83 1311.64 640.83 1311.64 553.44 1308.28 502.72 1326.61 532.97 1401.16 640.83"/>
    <polygon class="cls-2" points="1648.65 474.92 1648.65 436.11 1587.54 436.11 1543.85 436.11 1482.74 436.11 1482.74 474.92 1543.85 474.92 1543.85 640.83 1587.54 640.83 1587.54 474.92 1648.65 474.92"/>
    <path class="cls-2" d="M748.22,746.15l-76.69,204.71h46.44l16.38-45.53h82.53l16.28,45.53h47.97l-76.69-204.71h-56.22ZM747.67,868.36l15.83-44,12.22-43.39,12.22,43.39,15.73,44h-56.01Z"/>
    <path class="cls-2" d="M981.05,793.05c8.14-5.39,18.13-8.1,29.94-8.1,10.39,0,19.3,2.09,26.73,6.26,7.43,4.18,13.44,9.78,18.03,16.8s7.89,14.82,9.93,23.37l37.28-29.94c-5.3-12.02-12.27-22.4-20.93-31.17-8.66-8.76-18.9-15.48-30.71-20.17-11.82-4.68-25.16-7.03-40.03-7.03-21.39,0-39.67,4.69-54.84,14.05-15.18,9.37-26.79,21.95-34.83,37.73-8.05,15.79-12.07,33.56-12.07,53.32s4.02,37.28,12.07,53.16c8.04,15.89,19.66,28.52,34.83,37.89,15.17,9.37,33.46,14.05,54.84,14.05,14.87,0,28.21-2.34,40.03-7.03,11.81-4.68,22.05-11.41,30.71-20.17,8.66-8.76,15.63-19.14,20.93-31.17l-37.28-29.94c-2.04,8.56-5.35,16.35-9.93,23.37-4.58,7.03-10.59,12.63-18.03,16.8-7.44,4.18-16.35,6.26-26.73,6.26-11.82,0-21.8-2.7-29.94-8.1-8.15-5.39-14.26-12.88-18.33-22.46-4.08-9.57-6.11-20.47-6.11-32.69s2.03-23.37,6.11-32.85c4.07-9.47,10.18-16.91,18.33-22.3Z"/>
    <path class="cls-2" d="M1207.45,746.15l-76.69,204.71h46.44l16.38-45.53h82.53l16.28,45.53h47.97l-76.69-204.71h-56.22ZM1206.89,868.36l15.83-44,12.22-43.39,12.22,43.39,15.73,44h-56.01Z"/>
    <path class="cls-2" d="M1513.15,758.98c-14.77-8.56-32.54-12.83-53.32-12.83h-82.19v204.71h82.8c20.78,0,38.45-4.28,53.01-12.83,14.56-8.56,25.71-20.52,33.46-35.9,7.74-15.38,11.61-33.25,11.61-53.62s-3.87-38.5-11.61-53.78c-7.74-15.28-19-27.19-33.76-35.75ZM1506.58,883.49c-4.08,9.47-10.24,16.6-18.49,21.39-8.25,4.79-18.69,7.18-31.32,7.18h-35.44v-127.1h34.83c12.63,0,23.12,2.4,31.47,7.18,8.35,4.79,14.61,11.87,18.79,21.24,4.17,9.37,6.26,21.08,6.26,35.14s-2.04,25.51-6.11,34.98Z"/>
    <polygon class="cls-2" points="1627.88 746.15 1612.6 746.15 1612.6 950.86 1627.88 950.86 1656.29 950.86 1762.93 950.86 1762.93 912.06 1656.29 912.06 1656.29 866.84 1745.51 866.84 1745.51 828.03 1656.29 828.03 1656.29 784.95 1762.93 784.95 1762.93 746.15 1656.29 746.15 1627.88 746.15"/>
    <polygon class="cls-2" points="1942.89 822.23 1923.64 883.03 1904.39 822.23 1871.09 746.15 1813.34 746.15 1813.34 950.86 1857.03 950.86 1857.03 874.17 1850.62 791.67 1875.37 859.81 1900.73 915.42 1946.56 915.42 1971.92 859.81 1996.36 791.67 1990.25 874.17 1990.25 950.86 2033.94 950.86 2033.94 746.15 1976.19 746.15 1942.89 822.23"/>
    <polygon class="cls-2" points="2267.07 746.15 2214.51 746.15 2187.93 797.78 2167.77 844.53 2147.6 797.48 2122.24 746.15 2067.24 746.15 2145.16 880.75 2145.16 950.86 2188.85 950.86 2188.85 880.78 2267.07 746.15"/>
  </g>
</svg>